<svg width="73" height="28" viewBox="0 0 73 28" fill="none" xmlns="http://www.w3.org/2000/svg">
<path d="M25.8509 8.90491C25.6351 8.95565 25.3576 8.98102 25.0184 8.98102C24.34 8.98102 23.7645 8.91506 23.2917 8.78313C22.8292 8.64106 22.4386 8.48377 22.12 8.31125L21.4416 10.1988C21.5855 10.28 21.7602 10.3662 21.9658 10.4576C22.1816 10.5489 22.4334 10.6352 22.7212 10.7163C23.0193 10.7975 23.3585 10.8635 23.7388 10.9142C24.1191 10.9751 24.5456 11.0056 25.0184 11.0056C26.4265 11.0056 27.48 10.7366 28.1789 10.1988C28.8778 9.65079 29.2273 8.88461 29.2273 7.90025C29.2273 7.39285 29.1605 6.96156 29.0269 6.60638C28.8933 6.2512 28.6877 5.94168 28.4102 5.67783C28.143 5.41398 27.8038 5.18565 27.3927 4.99284C26.9815 4.78988 26.4985 4.58692 25.9434 4.38396C25.6762 4.29262 25.4295 4.20637 25.2034 4.12518C24.9876 4.03385 24.7923 3.93744 24.6176 3.83596C24.4531 3.72433 24.3246 3.60256 24.2321 3.47063C24.1396 3.33871 24.0934 3.17634 24.0934 2.98353C24.0934 2.65879 24.2167 2.42031 24.4634 2.26809C24.7203 2.10572 25.1366 2.02453 25.7122 2.02453C26.2261 2.02453 26.6629 2.08542 27.0226 2.2072C27.3927 2.31883 27.7267 2.45075 28.0248 2.60297L28.7185 0.73066C28.3794 0.547995 27.9477 0.380552 27.4235 0.228332C26.8993 0.0761107 26.2775 0 25.558 0C24.9516 0 24.4069 0.0761107 23.9238 0.228332C23.4407 0.370404 23.0296 0.578439 22.6904 0.852436C22.3512 1.12643 22.0891 1.46132 21.9041 1.85709C21.7191 2.24272 21.6266 2.67908 21.6266 3.16619C21.6266 3.6533 21.714 4.06937 21.8887 4.4144C22.0634 4.74929 22.2896 5.03851 22.5671 5.28206C22.8446 5.51546 23.1581 5.71335 23.5075 5.87572C23.857 6.02794 24.2064 6.16494 24.5559 6.28671C25.3576 6.55056 25.9229 6.79919 26.2518 7.0326C26.5807 7.25585 26.7451 7.54 26.7451 7.88503C26.7451 8.0474 26.7194 8.19455 26.668 8.32647C26.6166 8.4584 26.5241 8.5751 26.3905 8.67658C26.2569 8.76791 26.077 8.84402 25.8509 8.90491Z" fill="#008F91"/>
<path fill-rule="evenodd" clip-rule="evenodd" d="M4.06076 10.9294C3.4749 10.9294 2.88905 10.9091 2.3032 10.8686C1.72762 10.8381 1.12635 10.7569 0.499383 10.625V0.395774C0.992734 0.304442 1.53234 0.238479 2.11819 0.197887C2.70404 0.147147 3.24879 0.121777 3.75241 0.121777C4.43077 0.121777 5.0526 0.172517 5.6179 0.273997C6.19347 0.36533 6.68682 0.527698 7.09795 0.761103C7.50907 0.994509 7.8277 1.30402 8.05381 1.68965C8.29021 2.06513 8.40841 2.53194 8.40841 3.09008C8.40841 3.93237 7.99728 4.59706 7.17503 5.08417C7.85339 5.33787 8.31591 5.68291 8.56258 6.11927C8.80926 6.55564 8.93259 7.04782 8.93259 7.59581C8.93259 8.70195 8.52147 9.53409 7.69922 10.0922C6.88725 10.6504 5.67443 10.9294 4.06076 10.9294ZM2.8428 6.19538V8.92013C3.01753 8.94043 3.20767 8.95565 3.41324 8.9658C3.6188 8.97595 3.84492 8.98102 4.09159 8.98102C4.81106 8.98102 5.39178 8.87954 5.83374 8.67658C6.2757 8.47362 6.49668 8.09814 6.49668 7.55015C6.49668 7.06304 6.31167 6.71801 5.94166 6.51505C5.57164 6.30194 5.04232 6.19538 4.35368 6.19538H2.8428ZM2.8428 4.38396H4.01451C4.75453 4.38396 5.28386 4.29262 5.60248 4.10996C5.9211 3.91715 6.08041 3.6127 6.08041 3.19663C6.08041 2.77042 5.91596 2.47105 5.58706 2.29853C5.25816 2.12602 4.77509 2.03976 4.13784 2.03976C3.93228 2.03976 3.7113 2.04483 3.4749 2.05498C3.23851 2.05498 3.0278 2.06513 2.8428 2.08542V4.38396Z" fill="#008F91"/>
<path fill-rule="evenodd" clip-rule="evenodd" d="M17.8608 10.7924C17.7478 10.4271 17.6193 10.0516 17.4754 9.66601L17.0746 8.50914H12.9119C12.7783 8.89476 12.6395 9.28039 12.4957 9.66601C12.362 10.0516 12.2387 10.4271 12.1256 10.7924H9.62806C10.0289 9.65587 10.4092 8.60554 10.7689 7.64148C11.1287 6.67741 11.4781 5.76916 11.8173 4.91673C12.1668 4.06429 12.5059 3.25752 12.8348 2.49642C13.174 1.72517 13.5235 0.974212 13.8832 0.243553H16.1804C16.5298 0.974212 16.8741 1.72517 17.2133 2.49642C17.5525 3.25752 17.8917 4.06429 18.2309 4.91673C18.5803 5.76916 18.9349 6.67741 19.2946 7.64148C19.6544 8.60554 20.0347 9.65587 20.4355 10.7924H17.8608ZM14.9778 2.63342C14.9264 2.78564 14.8493 2.99367 14.7466 3.25752C14.6438 3.52137 14.5256 3.82581 14.392 4.17085C14.2584 4.51588 14.1093 4.89643 13.9449 5.3125C13.7907 5.72857 13.6314 6.16494 13.4669 6.6216H16.5041C16.3397 6.16494 16.1804 5.72857 16.0262 5.3125C15.872 4.89643 15.723 4.51588 15.5791 4.17085C15.4455 3.82581 15.3273 3.52137 15.2245 3.25752C15.1217 2.99367 15.0395 2.78564 14.9778 2.63342Z" fill="#008F91"/>
<path fill-rule="evenodd" clip-rule="evenodd" d="M34.2846 0.121777C35.8777 0.121777 37.1008 0.400848 37.9539 0.958991C38.807 1.50699 39.2335 2.41016 39.2335 3.66852C39.2335 4.93702 38.8019 5.85542 37.9385 6.42371C37.0751 6.98186 35.8418 7.26093 34.2384 7.26093H33.4829V10.7924H31.0778V0.395774C31.602 0.294294 32.1571 0.223257 32.7429 0.182665C33.3288 0.142073 33.8427 0.121777 34.2846 0.121777ZM34.4388 2.14631C34.2641 2.14631 34.0893 2.15139 33.9146 2.16153C33.7502 2.17168 33.6063 2.18183 33.4829 2.19198V5.23639H34.2384C35.0709 5.23639 35.6979 5.12476 36.1193 4.90151C36.5407 4.67825 36.7514 4.26218 36.7514 3.6533C36.7514 3.359 36.6948 3.11545 36.5818 2.92264C36.479 2.72982 36.3248 2.5776 36.1193 2.46597C35.924 2.3442 35.6824 2.26301 35.3947 2.22242C35.1069 2.17168 34.7882 2.14631 34.4388 2.14631Z" fill="#008F91"/>
<path fill-rule="evenodd" clip-rule="evenodd" d="M46.7139 9.66601C46.8578 10.0516 46.9863 10.4271 47.0993 10.7924H49.674C49.2732 9.65587 48.8929 8.60554 48.5331 7.64148C48.1734 6.67741 47.8188 5.76916 47.4693 4.91673C47.1302 4.06429 46.791 3.25752 46.4518 2.49642C46.1126 1.72517 45.7683 0.974212 45.4189 0.243553H43.1217C42.762 0.974212 42.4125 1.72517 42.0733 2.49642C41.7444 3.25752 41.4052 4.06429 41.0558 4.91673C40.7166 5.76916 40.3671 6.67741 40.0074 7.64148C39.6477 8.60554 39.2674 9.65587 38.8665 10.7924H41.3641C41.4772 10.4271 41.6005 10.0516 41.7341 9.66601C41.878 9.28039 42.0168 8.89476 42.1504 8.50914H46.3131L46.7139 9.66601ZM43.9851 3.25752C44.0878 2.99367 44.1649 2.78564 44.2163 2.63342C44.278 2.78564 44.3602 2.99367 44.463 3.25752C44.5658 3.52137 44.684 3.82581 44.8176 4.17085C44.9615 4.51588 45.1105 4.89643 45.2647 5.3125C45.4189 5.72857 45.5782 6.16494 45.7426 6.6216H42.7054C42.8699 6.16494 43.0292 5.72857 43.1834 5.3125C43.3478 4.89643 43.4968 4.51588 43.6305 4.17085C43.7641 3.82581 43.8823 3.52137 43.9851 3.25752Z" fill="#008F91"/>
<path d="M58.226 10.7924C57.5373 9.58483 56.7922 8.39243 55.9905 7.21526C55.1888 6.03809 54.3357 4.92688 53.4312 3.88163V10.7924H51.057V0.243553H53.015C53.3541 0.578439 53.7293 0.989435 54.1404 1.47654C54.5515 1.96365 54.9678 2.48627 55.3892 3.04441C55.8209 3.59241 56.2474 4.16577 56.6688 4.76451C57.0902 5.35309 57.486 5.92138 57.856 6.46938V0.243553H60.2456V10.7924H58.226Z" fill="#008F91"/>
<path fill-rule="evenodd" clip-rule="evenodd" d="M69.4784 9.66601C69.6223 10.0516 69.7507 10.4271 69.8638 10.7924H72.4385C72.0376 9.65587 71.6573 8.60554 71.2976 7.64148C70.9379 6.67741 70.5833 5.76916 70.2338 4.91673C69.8946 4.06429 69.5555 3.25752 69.2163 2.49642C68.8771 1.72517 68.5328 0.974212 68.1833 0.243553H65.8862C65.5264 0.974212 65.177 1.72517 64.8378 2.49642C64.5089 3.25752 64.1697 4.06429 63.8203 4.91673C63.4811 5.76916 63.1316 6.67741 62.7719 7.64148C62.4121 8.60554 62.0319 9.65587 61.631 10.7924H64.1286C64.2417 10.4271 64.365 10.0516 64.4986 9.66601C64.6425 9.28039 64.7813 8.89476 64.9149 8.50914H69.0775L69.4784 9.66601ZM66.7495 3.25752C66.8523 2.99367 66.9294 2.78564 66.9808 2.63342C67.0424 2.78564 67.1247 2.99367 67.2275 3.25752C67.3302 3.52137 67.4484 3.82581 67.5821 4.17085C67.726 4.51588 67.875 4.89643 68.0292 5.3125C68.1833 5.72857 68.3426 6.16494 68.5071 6.6216H65.4699C65.6343 6.16494 65.7937 5.72857 65.9478 5.3125C66.1123 4.89643 66.2613 4.51588 66.3949 4.17085C66.5285 3.82581 66.6467 3.52137 66.7495 3.25752Z" fill="#008F91"/>
<path d="M3.29794 27.0073C3.23091 26.8418 3.13371 26.6234 3.00635 26.352C2.8857 26.0807 2.74828 25.7862 2.59411 25.4685C2.43994 25.1442 2.28242 24.8133 2.12154 24.4758C1.96067 24.1316 1.80649 23.8106 1.65903 23.5128C1.51156 23.215 1.38085 22.9536 1.26689 22.7285C1.15294 22.5035 1.06915 22.3447 1.01552 22.252C0.928384 23.0793 0.858001 23.9794 0.804376 24.9523C0.757454 25.9186 0.713884 26.9345 0.673665 28H0C0.0603282 26.7491 0.127359 25.5512 0.201094 24.4063C0.281531 23.2613 0.378727 22.166 0.49268 21.1203H1.09596C1.29706 21.4512 1.51156 21.8351 1.73946 22.2719C1.96737 22.7021 2.19192 23.1521 2.41313 23.622C2.64103 24.0853 2.85889 24.5453 3.06668 25.0019C3.28118 25.452 3.46887 25.859 3.62975 26.223C3.79062 25.859 3.97496 25.452 4.18275 25.0019C4.39725 24.5453 4.61511 24.0853 4.83631 23.622C5.06422 23.1521 5.29212 22.7021 5.52003 22.2719C5.74794 21.8351 5.96244 21.4512 6.16353 21.1203H6.73665C6.8506 22.166 6.94445 23.2613 7.01818 24.4063C7.09862 25.5512 7.169 26.7491 7.22933 28H6.53555C6.49534 26.9345 6.44841 25.9186 6.39479 24.9523C6.34787 23.9794 6.28084 23.0793 6.19369 22.252C6.14007 22.3447 6.05628 22.5035 5.94233 22.7285C5.82837 22.9536 5.69766 23.215 5.55019 23.5128C5.40273 23.8106 5.24855 24.1316 5.08768 24.4758C4.9268 24.8133 4.76928 25.1442 4.61511 25.4685C4.46093 25.7862 4.32017 26.0807 4.19281 26.352C4.07215 26.6234 3.97831 26.8418 3.91128 27.0073H3.29794Z" fill="#008F91"/>
<path fill-rule="evenodd" clip-rule="evenodd" d="M20.2827 27.0271C20.3966 27.3382 20.5173 27.6625 20.6447 28H21.3988C21.1239 27.2852 20.8692 26.6201 20.6346 26.0046C20.4 25.3825 20.1687 24.7967 19.9408 24.2474C19.7196 23.6915 19.4984 23.1587 19.2772 22.6491C19.056 22.1395 18.8214 21.6299 18.5734 21.1203H17.9701C17.7221 21.6299 17.4875 22.1395 17.2663 22.6491C17.0451 23.1587 16.8205 23.6915 16.5926 24.2474C16.3714 24.7967 16.1435 25.3825 15.9089 26.0046C15.6743 26.6201 15.4229 27.2852 15.1548 28H15.8687C15.9893 27.6625 16.1066 27.3382 16.2206 27.0271C16.3345 26.7161 16.4485 26.4116 16.5624 26.1138H19.9509C20.0581 26.4116 20.1687 26.7161 20.2827 27.0271ZM17.5076 23.6319C17.7489 23.0429 17.9969 22.4638 18.2516 21.8946C18.5064 22.4638 18.7544 23.0429 18.9957 23.6319C19.237 24.221 19.485 24.8563 19.7397 25.538H16.7736C17.0283 24.8563 17.273 24.221 17.5076 23.6319Z" fill="#008F91"/>
<path fill-rule="evenodd" clip-rule="evenodd" d="M34.1343 23.1852C34.1343 23.7014 33.9969 24.1084 33.722 24.4063C33.4472 24.7041 33.0853 24.9192 32.6361 25.0515C32.7434 25.1839 32.8808 25.3626 33.0484 25.5876C33.2227 25.8127 33.4003 26.0608 33.5813 26.3322C33.7623 26.5969 33.9399 26.8749 34.1142 27.1661C34.2885 27.4573 34.4359 27.7353 34.5566 28H33.8226C33.6818 27.7353 33.5277 27.4705 33.3601 27.2058C33.1992 26.9411 33.0316 26.6863 32.8573 26.4414C32.6898 26.1899 32.5255 25.9583 32.3647 25.7465L31.9424 25.1905C31.7279 25.2104 31.5134 25.2203 31.2989 25.2203H30.1727V28H29.489V21.2493C29.7303 21.1832 30.0119 21.1368 30.3336 21.1104C30.6621 21.0773 30.9637 21.0607 31.2385 21.0607C32.1971 21.0607 32.9177 21.2394 33.4003 21.5968C33.8896 21.9542 34.1343 22.4837 34.1343 23.1852ZM31.319 21.6464C31.0643 21.6464 30.8397 21.6564 30.6453 21.6762C30.4576 21.6895 30.3001 21.7027 30.1727 21.7159V24.6445H31.1179C31.4329 24.6445 31.7312 24.6313 32.0127 24.6048C32.2943 24.5717 32.5389 24.5055 32.7467 24.4063C32.9545 24.3004 33.1188 24.1515 33.2394 23.9595C33.3601 23.7676 33.4204 23.5062 33.4204 23.1753C33.4204 22.8708 33.3601 22.6193 33.2394 22.4208C33.1188 22.2222 32.9612 22.0667 32.7669 21.9542C32.5725 21.8351 32.3479 21.7556 32.0932 21.7159C31.8452 21.6696 31.5871 21.6464 31.319 21.6464Z" fill="#008F91"/>
<path d="M46.272 26.9775C46.5602 27.315 46.8183 27.6558 47.0462 28H47.8103C47.7098 27.8147 47.5791 27.6128 47.4182 27.3944C47.264 27.176 47.0864 26.951 46.8853 26.7194C46.6909 26.4877 46.4798 26.2594 46.2519 26.0344C46.0306 25.8027 45.8027 25.5843 45.5681 25.3792C45.3402 25.1674 45.1123 24.9754 44.8844 24.8034C44.6632 24.6247 44.4554 24.4758 44.261 24.3566C44.5023 24.1382 44.7738 23.8867 45.0754 23.6021C45.3838 23.3109 45.6921 23.0164 46.0005 22.7186C46.3088 22.4208 46.6004 22.1329 46.8752 21.8549C47.1501 21.5703 47.3847 21.3255 47.5791 21.1203H46.7546C46.5937 21.3056 46.3792 21.5339 46.1111 21.8053C45.843 22.0766 45.5547 22.3612 45.2464 22.659C44.9447 22.9569 44.6364 23.2547 44.3213 23.5525C44.013 23.8437 43.7315 24.1018 43.4768 24.3269V21.1203H42.793V28H43.4768V24.5949C43.7784 24.7603 44.0901 24.9655 44.4118 25.2104C44.7403 25.4553 45.062 25.7266 45.3771 26.0244C45.6921 26.3223 45.9904 26.6399 46.272 26.9775Z" fill="#008F91"/>
<path d="M55.9007 28V21.1203H59.9226V21.706H56.5844V24.0985H59.5606V24.6743H56.5844V27.4143H60.184V28H55.9007Z" fill="#008F91"/>
<path d="M72.9905 21.706V21.1203H67.8425V21.706H70.0747V28H70.7584V21.706H72.9905Z" fill="#008F91"/>
<path d="M73 16.4849H0.606159V17.0125H73V16.4849Z" fill="#008F91"/>
</svg>
