<svg width="18.5" height="18" viewBox="0 0 21 20" fill="none" xmlns="http://www.w3.org/2000/svg">
<path d="M10 13L9.46967 13.5303C9.76256 13.8232 10.2374 13.8232 10.5303 13.5303L10 13ZM6.53033 8.46967C6.23744 8.17678 5.76256 8.17678 5.46967 8.46967C5.17678 8.76256 5.17678 9.23744 5.46967 9.53033L6.53033 8.46967ZM20.0303 4.03033C20.3232 3.73744 20.3232 3.26256 20.0303 2.96967C19.7374 2.67678 19.2626 2.67678 18.9697 2.96967L20.0303 4.03033ZM15.1855 3.58303C15.5075 3.84359 15.9798 3.79378 16.2404 3.47178C16.5009 3.14979 16.4511 2.67753 16.1291 2.41697L15.1855 3.58303ZM19.6152 8.37591C19.5467 7.9674 19.16 7.6918 18.7515 7.76034C18.343 7.82887 18.0674 8.21559 18.1359 8.62409L19.6152 8.37591ZM18.25 10C18.25 14.5563 14.5563 18.25 10 18.25V19.75C15.3848 19.75 19.75 15.3848 19.75 10H18.25ZM10 18.25C5.44365 18.25 1.75 14.5563 1.75 10H0.25C0.25 15.3848 4.61522 19.75 10 19.75V18.25ZM1.75 10C1.75 5.44365 5.44365 1.75 10 1.75V0.25C4.61522 0.25 0.25 4.61522 0.25 10H1.75ZM10.5303 12.4697L6.53033 8.46967L5.46967 9.53033L9.46967 13.5303L10.5303 12.4697ZM10.5303 13.5303L20.0303 4.03033L18.9697 2.96967L9.46967 12.4697L10.5303 13.5303ZM10 1.75C11.9654 1.75 13.7685 2.43632 15.1855 3.58303L16.1291 2.41697C14.4548 1.06208 12.3212 0.25 10 0.25V1.75ZM18.1359 8.62409C18.2109 9.07106 18.25 9.53068 18.25 10H19.75C19.75 9.44718 19.7039 8.90456 19.6152 8.37591L18.1359 8.62409Z" fill="#008F91"/>
</svg>
