<svg width="16" height="16" viewBox="0 0 16 16" fill="none" xmlns="http://www.w3.org/2000/svg">
<circle cx="8" cy="8" r="8" fill="#D1D4D7"/>
<path d="M8.45466 10.5064H7.34581V9.87679C7.34581 9.49079 7.46031 9.15725 7.68932 8.87618C7.82993 8.70753 8.04487 8.49579 8.33414 8.24095C8.39038 8.19598 8.48881 8.11541 8.62943 7.99923C9.23608 7.4933 9.54343 6.98737 9.55146 6.48145C9.55146 5.94179 9.30036 5.55766 8.79817 5.32905L8.41851 5.211C8.27789 5.18102 8.12924 5.16603 7.97256 5.16603C7.2976 5.16603 6.83759 5.38901 6.59252 5.83498C6.4519 6.09731 6.3816 6.47395 6.3816 6.96489H5.33301C5.33301 6.1554 5.51782 5.52768 5.88743 5.08171C6.26107 4.63574 6.8175 4.37341 7.55674 4.29471C7.71342 4.27597 7.87413 4.2666 8.03885 4.2666C9.07538 4.2666 9.82265 4.58515 10.2807 5.22224L10.4795 5.57077C10.6041 5.8481 10.6663 6.15165 10.6663 6.48145C10.6663 7.01736 10.4554 7.51204 10.0336 7.9655C9.87689 8.14164 9.67601 8.33277 9.43094 8.53889C8.91267 8.98486 8.61135 9.3109 8.52698 9.51702C8.47877 9.63319 8.45466 9.7831 8.45466 9.96673V10.5064ZM8.45466 11.6026V12.7999H7.34581V11.6026H8.45466Z" fill="#333839"/>
</svg>
