<svg width="16" height="16" viewBox="0 0 16 16" fill="none" xmlns="http://www.w3.org/2000/svg">
<path fill-rule="evenodd" clip-rule="evenodd" d="M8.39194 14.7798C9.51531 13.1738 12.6667 8.43764 12.6667 5.84483C12.6667 3.35322 10.5774 1.33337 8.00004 1.33337C5.42271 1.33337 3.33337 3.35322 3.33337 5.84483C3.33337 8.43585 6.48494 13.1734 7.60823 14.7797C7.80123 15.0557 8.1989 15.0557 8.39194 14.7798ZM8.00004 7.99803C9.10461 7.99803 10 7.10287 10 5.99863C10 4.8944 9.10461 3.99924 8.00004 3.99924C6.89547 3.99924 6.00004 4.8944 6.00004 5.99863C6.00004 7.10287 6.89547 7.99803 8.00004 7.99803Z" fill="#008F91"/>
</svg>
