<svg width="24" height="24" viewBox="0 0 24 24" fill="none" xmlns="http://www.w3.org/2000/svg">
<path d="M19.6375 15.64C19.3267 15.4501 19.0709 15.1822 18.8955 14.863C18.7201 14.5437 18.6312 14.1842 18.6375 13.82V11.51C18.6768 9.84407 18.1534 8.21353 17.1518 6.88172C16.1502 5.54991 14.7289 4.59457 13.1175 4.17C13.1278 4.07695 13.1278 3.98305 13.1175 3.89V3.51C13.1149 3.11033 12.955 2.72778 12.6724 2.44517C12.3898 2.16255 12.0072 2.00262 11.6075 2C11.2088 2.00264 10.8273 2.1629 10.5463 2.44579C10.2652 2.72868 10.1075 3.11125 10.1075 3.51V3.89C10.0972 3.98305 10.0972 4.07695 10.1075 4.17C8.52228 4.54978 7.1125 5.45554 6.10819 6.73953C5.10388 8.02352 4.56433 9.60995 4.57754 11.24V13.82C4.58491 14.1844 4.49642 14.5443 4.32091 14.8637C4.14541 15.1831 3.88906 15.4508 3.57754 15.64C3.21545 15.8553 2.92646 16.1744 2.74813 16.5561C2.5698 16.9377 2.51036 17.3641 2.57754 17.78C2.66498 18.2663 2.92189 18.7059 3.30266 19.0208C3.68344 19.3357 4.16347 19.5054 4.65754 19.5H8.31753C8.50582 20.2178 8.92715 20.8528 9.51537 21.3053C10.1036 21.7578 10.8254 22.0021 11.5675 22C12.3092 22.0004 13.0302 21.7554 13.6181 21.3032C14.206 20.851 14.6277 20.217 14.8175 19.5H18.4475C18.9416 19.5054 19.4216 19.3357 19.8024 19.0208C20.1832 18.7059 20.4401 18.2663 20.5275 17.78C20.6055 17.3753 20.5627 16.9566 20.4045 16.5761C20.2462 16.1956 19.9795 15.87 19.6375 15.64Z" fill="#ADB0B3"/>
<circle cx="16.4492" cy="9" r="5" fill="#F05E22"/>
</svg>
