<svg width="24" height="24" viewBox="0 0 24 24" fill="none" xmlns="http://www.w3.org/2000/svg">
<path fill-rule="evenodd" clip-rule="evenodd" d="M10.9383 2.4471C11.2199 2.16223 11.6018 2.0022 12 2.0022C12.3974 2.00485 12.7778 2.16574 13.0588 2.45003C13.3398 2.73432 13.4989 3.11914 13.5015 3.52118V4.44659C14.1471 4.578 14.7722 4.79485 15.35 5.09645C17.4529 6.19412 18.7559 8.47446 18.7559 11.2076C18.7559 11.8457 18.7564 12.5916 18.8158 13.2977C18.877 14.024 18.9944 14.6093 19.1758 14.9681C19.2269 15.0693 19.3651 15.2602 19.6099 15.5336C19.8424 15.7934 20.1326 16.0857 20.4438 16.3831C21.5668 17.4562 20.8996 19.5222 19.2247 19.5222H15.1826C15.0971 19.9807 14.92 20.4598 14.593 20.8805C14.0531 21.575 13.1923 21.9978 12 21.9978C10.8077 21.9978 9.94695 21.575 9.4072 20.8803C9.08036 20.4597 8.90344 19.9806 8.81803 19.5222H4.77529C3.10039 19.5222 2.43326 17.4562 3.55624 16.3831C3.86742 16.0857 4.15763 15.7934 4.39013 15.5336C4.63492 15.2602 4.7731 15.0693 4.82422 14.9681C5.00559 14.6093 5.12298 14.024 5.18416 13.2977C5.24365 12.5916 5.24408 11.8457 5.24408 11.2076C5.24408 8.52419 6.5489 6.20356 8.64743 5.09787C9.22624 4.79291 9.85221 4.57527 10.4985 4.44425V3.52118C10.4985 3.11832 10.6567 2.73196 10.9383 2.4471ZM10.5916 19.96C10.4935 19.8337 10.418 19.6852 10.3632 19.5222H13.6373C13.5825 19.6851 13.5069 19.8336 13.4088 19.9598C13.199 20.2297 12.8097 20.4978 12 20.4978C11.1903 20.4978 10.8012 20.2297 10.5916 19.96ZM9.50032 18.0222H14.5003H19.2247C19.3343 18.0222 19.4286 17.9628 19.4789 17.8285C19.5308 17.6902 19.501 17.557 19.4075 17.4676C19.0816 17.1562 18.7608 16.8341 18.4922 16.5341C18.2359 16.2478 17.983 15.9336 17.8371 15.6448C17.5179 15.0134 17.3851 14.1826 17.3211 13.4236C17.2559 12.6495 17.2559 11.8465 17.2559 11.2197V11.2076C17.2559 8.95387 16.1969 7.23055 14.6559 6.4262C13.0495 5.58771 10.9449 5.58282 9.34665 6.42493C7.80724 7.23603 6.74408 9.00131 6.74408 11.2076V11.2197C6.74408 11.8465 6.74408 12.6495 6.67887 13.4236C6.61493 14.1826 6.48206 15.0134 6.16294 15.6448C6.01699 15.9336 5.76406 16.2478 5.50778 16.5341C5.2392 16.8341 4.91836 17.1562 4.59255 17.4676C4.49901 17.557 4.46923 17.6902 4.52109 17.8285C4.57144 17.9628 4.6657 18.0222 4.77529 18.0222H9.50032Z" fill="#333839"/>
<circle cx="16" cy="9" r="5" fill="#F05E22"/>
</svg>
