<svg width="24" height="24" viewBox="0 0 24 24" fill="none" xmlns="http://www.w3.org/2000/svg">
<path d="M16 7C16 9.20914 14.2092 11 12 11C9.79089 11 8.00003 9.20914 8.00003 7C8.00003 4.79086 9.79089 3 12 3C14.2092 3 16 4.79086 16 7Z" stroke="#008F91" stroke-width="1.5"/>
<path d="M4.768 15.7616C5.72842 12.9159 8.39709 11 11.4005 11H12.5996C15.603 11 18.2716 12.9159 19.232 15.7615L20.1092 18.3604C20.5467 19.6569 19.5825 21 18.2142 21H5.78586C4.4176 21 3.45334 19.6569 3.89088 18.3604L4.768 15.7616Z" stroke="#008F91" stroke-width="1.5"/>
</svg>
