<svg width="16" height="16" viewBox="0 0 16 16" fill="none" xmlns="http://www.w3.org/2000/svg">
<path fill-rule="evenodd" clip-rule="evenodd" d="M14.6667 8.00004C14.6667 8.66671 12 12.6667 8.00004 12.6667C4.00004 12.6667 1.33337 8.66671 1.33337 8.00004C1.33337 7.33337 4.00004 3.33337 8.00004 3.33337C12 3.33337 14.6667 7.33337 14.6667 8.00004ZM8.00004 5.33337C9.4728 5.33337 10.6667 6.52728 10.6667 8.00004C10.6667 9.4728 9.4728 10.6667 8.00004 10.6667C6.52728 10.6667 5.33337 9.4728 5.33337 8.00004C5.33337 6.52728 6.52728 5.33337 8.00004 5.33337Z" fill="#7A7E81"/>
<path d="M9.33333 8C9.33333 7.26362 8.73638 6.66667 8 6.66667C7.26362 6.66667 6.66667 7.26362 6.66667 8C6.66667 8.73638 7.26362 9.33333 8 9.33333C8.73638 9.33333 9.33333 8.73638 9.33333 8Z" fill="#7A7E81"/>
</svg>
